<svg xmlns="http://www.w3.org/2000/svg" viewBox="0 -0.5 16 16" shape-rendering="crispEdges">
<metadata>Made with Pixels to Svg https://codepen.io/shshaw/pen/XbxvNj</metadata>
<path stroke="#000000" d="M7 0h9M8 1h8M9 2h7M10 3h6M9 4h7M8 5h8M7 6h5M13 6h3M6 7h5M14 7h2M5 8h5M15 8h1M4 9h5M3 10h5M4 11h3M5 12h1" />
</svg>
<svg xmlns="http://www.w3.org/2000/svg" viewBox="0 -0.5 16 16" shape-rendering="crispEdges">
<metadata>Made with Pixels to Svg https://codepen.io/shshaw/pen/XbxvNj</metadata>
<path stroke="#000000" d="M0 0h4M0 1h4M0 2h2M0 3h2M0 4h2M0 5h2M0 6h2M0 7h2M0 8h2M0 9h2M0 10h2M0 11h2M0 12h2M14 12h2M0 13h2M14 13h2M0 14h16M0 15h16" />
</svg>