<svg xmlns="http://www.w3.org/2000/svg" viewBox="0 -0.5 16 16" shape-rendering="crispEdges">
<metadata>Made with Pixels to Svg https://codepen.io/shshaw/pen/XbxvNj</metadata>
<path stroke="#000000" d="M0 0h16M0 1h1M15 1h1M0 2h1M11 2h2M15 2h1M0 3h1M10 3h4M15 3h1M0 4h1M4 4h1M10 4h4M15 4h1M0 5h1M4 5h2M11 5h2M15 5h1M0 6h1M3 6h4M15 6h1M0 7h1M3 7h4M15 7h1M0 8h1M2 8h6M15 8h1M0 9h1M2 9h9M15 9h1M0 10h1M2 10h12M15 10h1M0 11h1M2 11h12M15 11h1M0 12h1M2 12h12M15 12h1M0 13h1M2 13h12M15 13h1M0 14h1M15 14h1M0 15h16" />
</svg>