<svg xmlns="http://www.w3.org/2000/svg" viewBox="0 -0.5 16 16" shape-rendering="crispEdges">
<metadata>Made with Pixels to Svg https://codepen.io/shshaw/pen/XbxvNj</metadata>
<path stroke="#c8c3c3" d="M0 0h1M2 0h1M5 0h1M15 0h1M0 1h1M15 1h1M0 2h1M15 2h1M0 3h1M3 3h2M12 3h1M15 3h1M0 4h1M3 4h1M5 4h1M9 4h1M15 4h1M15 5h1M10 6h1M15 7h1M2 14h11M1 15h2M4 15h8M13 15h2" />
<path stroke="#b5b2b2" d="M1 0h1M3 0h2M6 0h9M12 4h1M0 5h1M0 6h1M7 6h1M12 6h1M15 6h1M0 7h1M0 9h1M15 9h1M0 10h1M15 10h1M13 14h1M3 15h1M12 15h1" />
<path stroke="#3b3a3a" d="M1 1h2M13 1h2M9 8h2M12 8h1M2 13h1" />
<path stroke="#4a4949" d="M3 1h7M11 1h2M1 2h1M2 3h1M2 4h1M2 5h1M2 6h1M2 7h1M2 8h1M7 8h2M13 8h1M2 9h1M2 10h1M2 11h1M2 12h1M1 13h1M1 14h1" />
<path stroke="#5b5b5b" d="M10 1h1M1 3h1M1 4h1M1 5h1M11 8h1M1 9h1M3 9h1M6 9h3M11 9h1M13 9h1M1 10h1M1 11h1M3 11h1M1 12h1M6 12h5M3 13h2" />
<path stroke="#272727" d="M2 2h12" />
<path stroke="#828282" d="M14 2h1M13 3h1M13 4h1M14 5h1M14 8h1M14 9h1M14 10h1M14 11h1M14 12h1" />
<path stroke="#a9a9a9" d="M5 3h1M12 5h1M15 8h1M15 11h1M15 12h1M15 13h1M14 14h1" />
<path stroke="#d7d7d7" d="M6 3h6M4 4h1M6 4h3M10 4h2M4 5h8M3 6h4M8 6h2M11 6h1M3 7h3M8 7h2M12 7h1M3 8h1" />
<path stroke="#9c9c9c" d="M14 3h1M14 4h1M3 5h1M13 5h1M13 6h2M13 7h2M0 8h1M0 11h1M0 12h1M0 13h1M0 14h1M15 14h1M0 15h1M15 15h1" />
<path stroke="#616060" d="M1 6h1M1 7h1M1 8h1M4 9h1M10 9h1M12 9h1M3 10h4M11 10h2M4 11h1M9 11h5M3 12h3M11 12h3M5 13h9" />
<path stroke="#e5e5e5" d="M6 7h2M10 7h2M4 8h3" />
<path stroke="#6e6d6d" d="M5 9h1M7 10h4M13 10h1M5 11h1M8 11h1" />
<path stroke="#787878" d="M9 9h1M6 11h2M14 13h1" />
</svg>