<svg xmlns="http://www.w3.org/2000/svg" viewBox="0 -0.5 16 16"><path stroke="#c8c3c3" d="M0 0h1m1 0h1m2 0h1m9 0h1M0 1h1m14 0h1M0 2h1m14 0h1M0 3h1m2 0h2m7 0h1m2 0h1M0 4h1m2 0h1m1 0h1m3 0h1m5 0h1m-1 1h1m-6 1h1m4 1h1M2 14h11M1 15h2m1 0h8m1 0h2"/><path stroke="#b5b2b2" d="M1 0h1m1 0h2m1 0h9m-3 4h1M0 5h1M0 6h1m6 0h1m4 0h1m2 0h1M0 7h1M0 9h1m14 0h1M0 10h1m14 0h1m-3 4h1M3 15h1m8 0h1"/><path stroke="#3b3a3a" d="M1 1h2m10 0h2M9 8h2m1 0h1M2 13h1"/><path stroke="#4a4949" d="M3 1h7m1 0h2M1 2h1m0 1h1M2 4h1M2 5h1M2 6h1M2 7h1M2 8h1m4 0h2m4 0h1M2 9h1m-1 1h1m-1 1h1m-1 1h1m-2 1h1m-1 1h1"/><path stroke="#5b5b5b" d="M10 1h1M1 3h1M1 4h1M1 5h1m9 3h1M1 9h1m1 0h1m2 0h3m2 0h1m1 0h1M1 10h1m-1 1h1m1 0h1m-3 1h1m4 0h5m-8 1h2"/><path stroke="#272727" d="M2 2h12"/><path stroke="#828282" d="M14 2h1m-2 1h1m-1 1h1m0 1h1m-1 3h1m-1 1h1m-1 1h1m-1 1h1m-1 1h1"/><path stroke="#a9a9a9" d="M5 3h1m6 2h1m2 3h1m-1 3h1m-1 1h1m-1 1h1m-2 1h1"/><path stroke="#d7d7d7" d="M6 3h6M4 4h1m1 0h3m1 0h2M4 5h8M3 6h4m1 0h2m1 0h1M3 7h3m2 0h2m2 0h1M3 8h1"/><path stroke="#9c9c9c" d="M14 3h1m-1 1h1M3 5h1m9 0h1m-1 1h2m-2 1h2M0 8h1m-1 3h1m-1 1h1m-1 1h1m-1 1h1m14 0h1M0 15h1m14 0h1"/><path stroke="#616060" d="M1 6h1M1 7h1M1 8h1m2 1h1m5 0h1m1 0h1M3 10h4m4 0h2m-9 1h1m4 0h5M3 12h3m5 0h3m-9 1h9"/><path stroke="#e5e5e5" d="M6 7h2m2 0h2M4 8h3"/><path stroke="#6e6d6d" d="M5 9h1m1 1h4m2 0h1m-9 1h1m2 0h1"/><path stroke="#787878" d="M9 9h1m-4 2h2m6 2h1"/></svg>